# xmcd CD database file
#
# Track frame offsets:
#	150
#	22172
#	54287
#	82433
#	107720
#	134743
#	163497
#	182601
#	218521
#	235472
#	255391
#	274720
#	304929
#
# Disc length: 4326 seconds
#
# Revision: 0
# Processed by: cddbd v1.5.1PL2 Copyright (c) Steve Scherf et al.
# Submitted via: CDex 1.51
#
DISCID=c110e40d
DTITLE=Various Artist - Salsa Rmubera
DYEAR=1900
DGENRE=Salsa
TTITLE0=El Preso
TTITLE1=Vamonos pal monte
TTITLE2=Agusate
TTITLE3=El Nazareno
TTITLE4=Votaron la pelota
TTITLE5=La rueda
TTITLE6=Los Rodriguez
TTITLE7=El Padre Antonio
TTITLE8=Lloraras
TTITLE9=Torero
TTITLE10=El chinito
TTITLE11=Gitana
TTITLE12=Vaso en colores
EXTD=
EXTT0=
EXTT1=
EXTT2=
EXTT3=
EXTT4=
EXTT5=
EXTT6=
EXTT7=
EXTT8=
EXTT9=
EXTT10=
EXTT11=
EXTT12=
PLAYORDER=
